<svg width="151" height="126" viewBox="0 0 151 126" fill="none" xmlns="http://www.w3.org/2000/svg">
<path d="M33.7636 46.868C34.9769 45.3773 36.8142 43.436 39.2756 41.044C41.8409 38.5133 43.8862 36.3293 45.4116 34.492C46.9716 32.62 48.2889 30.436 49.3636 27.94C50.4729 25.4093 51.0276 22.6187 51.0276 19.568C51.0276 16.864 50.4556 14.6973 49.3116 13.068C48.2022 11.404 46.6769 10.572 44.7356 10.572C43.6956 10.572 42.7076 10.8667 41.7716 11.456C40.8356 12.0107 40.0902 12.7733 39.5356 13.744C38.9809 14.7147 38.7036 15.7547 38.7036 16.864C38.7036 17.8347 38.8249 18.5107 39.0676 18.892C39.3449 19.2387 39.7436 19.516 40.2636 19.724C40.6449 19.8627 40.9222 20.036 41.0956 20.244C41.2689 20.4173 41.3556 20.764 41.3556 21.284C41.3556 21.8733 41.1476 22.3933 40.7316 22.844C40.3156 23.2947 39.7609 23.52 39.0676 23.52C38.2356 23.52 37.4902 23.156 36.8316 22.428C36.1729 21.7 35.8436 20.7813 35.8436 19.672C35.8436 17.4533 36.3462 15.5987 37.3516 14.108C38.3569 12.5827 39.5876 11.456 41.0436 10.728C42.4996 10 43.8862 9.636 45.2036 9.636C46.9369 9.636 48.4969 10.052 49.8836 10.884C51.3049 11.716 52.4142 12.9293 53.2116 14.524C54.0436 16.084 54.4596 17.9387 54.4596 20.088C54.4596 23.104 53.8529 25.8253 52.6396 28.252C51.4609 30.644 50.0396 32.6893 48.3756 34.388C46.7462 36.0867 44.6836 37.9587 42.1876 40.004C40.9049 41.044 39.8649 41.9107 39.0676 42.604C38.3049 43.2973 37.6636 43.9907 37.1436 44.684C37.0396 44.8227 36.9876 44.996 36.9876 45.204C36.9876 45.516 37.1609 45.672 37.5076 45.672L45.6716 45.724C47.7169 45.724 49.2769 45.5507 50.3516 45.204C51.4609 44.8573 52.2929 44.0947 52.8476 42.916C53.4369 41.7373 53.7316 39.8827 53.7316 37.352H54.7196V49H33.7636V46.868Z" fill="#7A3A14"/>
<path d="M107.156 49.52C105.492 49.52 103.949 49.1907 102.528 48.532C101.107 47.8387 99.9625 46.868 99.0959 45.62C98.2292 44.372 97.7959 42.9333 97.7959 41.304C97.7959 40.1253 98.0559 39.1547 98.5759 38.392C99.1305 37.6293 99.8239 37.248 100.656 37.248C101.384 37.248 102.008 37.4907 102.528 37.976C103.083 38.4267 103.36 38.9467 103.36 39.536C103.36 40.0213 103.256 40.368 103.048 40.576C102.84 40.7493 102.511 40.9053 102.06 41.044C101.609 41.1827 101.263 41.356 101.02 41.564C100.777 41.772 100.656 42.1707 100.656 42.76C100.656 43.5573 100.881 44.4067 101.332 45.308C101.817 46.2093 102.511 46.9893 103.412 47.648C104.348 48.272 105.423 48.584 106.636 48.584C108.473 48.584 110.137 48.1333 111.628 47.232C113.119 46.296 114.297 45.0307 115.164 43.436C116.031 41.8413 116.464 40.0907 116.464 38.184C116.464 35.9653 115.944 34.076 114.904 32.516C113.899 30.956 112.512 29.7947 110.744 29.032C108.976 28.2347 107 27.836 104.816 27.836V27.004C107.104 26.8307 108.872 26.4667 110.12 25.912C111.368 25.3227 112.269 24.404 112.824 23.156C113.379 21.908 113.656 20.14 113.656 17.852C113.656 15.9107 113.205 14.212 112.304 12.756C111.403 11.3 109.981 10.572 108.04 10.572C106.272 10.572 104.903 10.9707 103.932 11.768C102.996 12.5307 102.528 13.5013 102.528 14.68C102.528 15.2693 102.649 15.668 102.892 15.876C103.135 16.084 103.481 16.2573 103.932 16.396C104.383 16.5347 104.712 16.708 104.92 16.916C105.128 17.0893 105.232 17.4187 105.232 17.904C105.232 18.4933 104.955 19.0307 104.4 19.516C103.88 19.9667 103.256 20.192 102.528 20.192C101.696 20.192 101.003 19.8107 100.448 19.048C99.9279 18.2853 99.6679 17.3147 99.6679 16.136C99.6679 15.0613 100.067 14.0213 100.864 13.016C101.696 12.0107 102.788 11.196 104.14 10.572C105.527 9.948 107 9.636 108.56 9.636C110.328 9.636 111.871 10 113.188 10.728C114.505 11.456 115.511 12.444 116.204 13.692C116.932 14.94 117.296 16.3267 117.296 17.852C117.296 20.4867 116.689 22.6013 115.476 24.196C114.263 25.756 112.599 26.6747 110.484 26.952C110.345 26.9867 110.276 27.056 110.276 27.16C110.276 27.2293 110.345 27.264 110.484 27.264C111.905 27.264 113.361 27.7147 114.852 28.616C116.343 29.4827 117.591 30.7307 118.596 32.36C119.601 33.9893 120.104 35.844 120.104 37.924C120.104 40.212 119.567 42.24 118.492 44.008C117.452 45.7413 115.944 47.0933 113.968 48.064C112.027 49.0347 109.756 49.52 107.156 49.52Z" fill="#7A3A14"/>
<line x1="75.5" x2="75.5" y2="61" stroke="#7A3A14"/>
<path d="M27.3373 89.3C25.8573 89.3 24.6373 88.95 23.6773 88.25C22.7373 87.55 22.0473 86.64 21.6073 85.52C21.1873 84.38 20.9773 83.15 20.9773 81.83C20.9773 80.55 21.1973 79.35 21.6373 78.23C22.0773 77.09 22.7373 76.17 23.6173 75.47C24.5173 74.75 25.5873 74.39 26.8273 74.39C27.9673 74.39 29.0273 74.65 30.0073 75.17C31.0073 75.69 31.5773 76.35 31.7173 77.15C31.7573 77.43 31.7773 77.62 31.7773 77.72C31.7773 78.16 31.6673 78.52 31.4473 78.8C31.2273 79.06 30.9173 79.19 30.5173 79.19C29.8173 79.19 29.4673 78.97 29.4673 78.53C29.4673 78.35 29.5173 78.09 29.6173 77.75C29.7373 77.35 29.7973 77.02 29.7973 76.76C29.7973 76.36 29.6473 76.01 29.3473 75.71C29.0473 75.39 28.6873 75.15 28.2673 74.99C27.8473 74.83 27.4673 74.75 27.1273 74.75C25.8673 74.75 24.8773 75.38 24.1573 76.64C23.4373 77.88 23.0773 79.7 23.0773 82.1C23.0773 84.04 23.4273 85.63 24.1273 86.87C24.8473 88.11 25.9473 88.73 27.4273 88.73C28.4473 88.73 29.2873 88.42 29.9473 87.8C30.6073 87.18 31.0473 86.42 31.2673 85.52H31.9273C31.6473 86.56 31.0873 87.45 30.2473 88.19C29.4073 88.93 28.4373 89.3 27.3373 89.3ZM39.6845 89.3C37.7845 89.3 36.3645 88.67 35.4245 87.41C34.4845 86.13 34.0145 84.27 34.0145 81.83C34.0145 80.55 34.2145 79.35 34.6145 78.23C35.0145 77.09 35.6345 76.17 36.4745 75.47C37.3345 74.75 38.3845 74.39 39.6245 74.39C41.6445 74.39 43.0845 75.01 43.9445 76.25C44.8045 77.47 45.2345 78.94 45.2345 80.66C45.2345 80.96 45.2145 81.35 45.1745 81.83L45.1445 82.1H36.1145C36.1945 86.58 37.4445 88.82 39.8645 88.82C40.9445 88.82 41.7445 88.49 42.2645 87.83C42.7845 87.17 43.0445 86.42 43.0445 85.58C43.0445 85.24 42.9545 84.99 42.7745 84.83C42.6145 84.67 42.4045 84.59 42.1445 84.59C41.9445 84.59 41.7645 84.65 41.6045 84.77C41.4645 84.87 41.3945 85 41.3945 85.16H41.1245V84.35H44.9345C44.9945 85.11 44.8045 85.87 44.3645 86.63C43.9445 87.39 43.3245 88.02 42.5045 88.52C41.6845 89.02 40.7445 89.28 39.6845 89.3ZM42.3545 81.65C42.7145 81.65 42.9245 81.62 42.9845 81.56C43.0645 81.48 43.1145 81.3 43.1345 81.02C43.1545 80.8 43.1645 80.47 43.1645 80.03C43.1645 78.51 42.8845 77.25 42.3245 76.25C41.7645 75.25 40.8245 74.75 39.5045 74.75C38.2245 74.75 37.3445 75.38 36.8645 76.64C36.3845 77.9 36.1345 79.57 36.1145 81.65H42.3545ZM47.191 88.55C47.531 88.65 47.781 88.7 47.941 88.7C48.261 88.7 48.461 88.58 48.541 88.34C48.641 88.1 48.691 87.72 48.691 87.2V76.79C48.691 76.27 48.641 75.89 48.541 75.65C48.461 75.41 48.261 75.29 47.941 75.29C47.781 75.29 47.531 75.34 47.191 75.44V74.99H52.291V75.44C52.011 75.34 51.751 75.29 51.511 75.29C51.171 75.29 50.951 75.42 50.851 75.68C50.751 75.92 50.701 76.29 50.701 76.79V81.11H57.511V76.79C57.511 76.27 57.461 75.89 57.361 75.65C57.281 75.41 57.081 75.29 56.761 75.29C56.601 75.29 56.351 75.34 56.011 75.44V74.99H61.111V75.44C60.771 75.34 60.521 75.29 60.361 75.29C60.001 75.29 59.771 75.42 59.671 75.68C59.571 75.92 59.521 76.29 59.521 76.79V87.2C59.521 87.7 59.571 88.08 59.671 88.34C59.771 88.58 60.001 88.7 60.361 88.7C60.521 88.7 60.771 88.65 61.111 88.55V89H56.011V88.55C56.351 88.65 56.601 88.7 56.761 88.7C57.081 88.7 57.281 88.58 57.361 88.34C57.461 88.1 57.511 87.72 57.511 87.2V81.65H50.701V87.2C50.701 87.7 50.751 88.08 50.851 88.34C50.951 88.58 51.181 88.7 51.541 88.7C51.701 88.7 51.951 88.65 52.291 88.55V89H47.191V88.55ZM65.5634 88.55C65.9034 88.65 66.1534 88.7 66.3134 88.7C66.6334 88.7 66.8334 88.58 66.9134 88.34C67.0134 88.1 67.0634 87.72 67.0634 87.2V76.79C67.0634 76.31 67.0334 75.95 66.9734 75.71C66.9334 75.47 66.8134 75.35 66.6134 75.35H65.0834C64.4034 75.37 63.8834 75.49 63.5234 75.71C63.1834 75.91 62.9534 76.16 62.8334 76.46C62.7134 76.76 62.6134 77.16 62.5334 77.66C62.4734 78.06 62.4034 78.39 62.3234 78.65C62.2634 78.91 62.1434 79.16 61.9634 79.4H61.4234C61.6234 79.22 61.7634 78.96 61.8434 78.62C61.9034 78.26 61.9334 77.74 61.9334 77.06V74.99H74.3234V77.06C74.3234 77.74 74.3534 78.26 74.4134 78.62C74.4934 78.96 74.6334 79.22 74.8334 79.4H74.2934C74.1134 79.16 73.9834 78.91 73.9034 78.65C73.8434 78.39 73.7834 78.06 73.7234 77.66C73.6434 77.16 73.5434 76.76 73.4234 76.46C73.3034 76.16 73.0634 75.91 72.7034 75.71C72.3634 75.49 71.8534 75.37 71.1734 75.35H69.5834C69.3834 75.35 69.2434 75.48 69.1634 75.74C69.1034 76 69.0734 76.35 69.0734 76.79V87.2C69.0734 87.7 69.1234 88.08 69.2234 88.34C69.3234 88.58 69.5534 88.7 69.9134 88.7C70.0734 88.7 70.3234 88.65 70.6634 88.55V89H65.5634V88.55ZM75.6502 89.6C74.7302 89.6 73.9602 89.42 73.3402 89.06L73.5202 88.73C73.9402 88.97 74.2902 89.09 74.5702 89.09C75.2702 89.09 75.7902 88.83 76.1302 88.31C76.4902 87.79 76.8602 86.99 77.2402 85.91C77.5202 85.15 77.7602 84.55 77.9602 84.11C78.1802 83.65 78.4802 83.26 78.8602 82.94C79.2402 82.62 79.7202 82.45 80.3002 82.43C79.1002 82.19 78.0902 81.74 77.2702 81.08C76.4502 80.4 76.0402 79.6 76.0402 78.68C76.0402 77.28 76.5802 76.27 77.6602 75.65C78.7602 75.01 80.1502 74.69 81.8302 74.69H86.9002V75.14C86.5602 75.04 86.3102 74.99 86.1502 74.99C85.7902 74.99 85.5602 75.12 85.4602 75.38C85.3602 75.62 85.3102 75.99 85.3102 76.49V87.2C85.3102 87.7 85.3602 88.08 85.4602 88.34C85.5602 88.58 85.7902 88.7 86.1502 88.7C86.3102 88.7 86.5602 88.65 86.9002 88.55V89H81.8002V88.55C82.1402 88.65 82.3902 88.7 82.5502 88.7C82.8702 88.7 83.0702 88.58 83.1502 88.34C83.2502 88.1 83.3002 87.72 83.3002 87.2V82.58C82.2402 82.6 81.4102 82.8 80.8102 83.18C80.2102 83.56 79.7702 84.01 79.4902 84.53C79.2302 85.03 78.9802 85.7 78.7402 86.54C78.5202 87.24 78.3202 87.79 78.1402 88.19C77.9602 88.59 77.6702 88.92 77.2702 89.18C76.8702 89.46 76.3302 89.6 75.6502 89.6ZM83.3002 76.49C83.3002 76.15 83.2802 75.89 83.2402 75.71C83.2002 75.51 83.0702 75.35 82.8502 75.23C82.6302 75.09 82.2802 75.05 81.8002 75.11C80.4602 75.27 79.4902 75.69 78.8902 76.37C78.2902 77.03 77.9902 77.84 77.9902 78.8C77.9902 79.76 78.4002 80.55 79.2202 81.17C80.0602 81.79 81.1302 82.1 82.4302 82.1C82.6102 82.1 82.9002 82.08 83.3002 82.04V76.49ZM95.1247 89.3C92.9647 89.3 91.4047 88.6 90.4447 87.2C89.4847 85.8 89.0047 84.14 89.0047 82.22C89.0047 78.8 89.5847 76.11 90.7447 74.15C91.9047 72.19 93.4747 70.87 95.4547 70.19C95.9147 70.03 96.4047 69.9 96.9247 69.8C97.5647 69.64 98.0447 69.5 98.3647 69.38C98.7047 69.24 98.9847 69.04 99.2047 68.78C99.4247 68.52 99.5347 68.16 99.5347 67.7C99.5347 67.34 99.4647 66.92 99.3247 66.44L99.5947 66.41C99.9947 67.29 100.195 68.08 100.195 68.78C100.195 69.66 99.8947 70.35 99.2947 70.85C98.6947 71.35 97.8847 71.73 96.8647 71.99C95.0247 72.45 93.6447 72.93 92.7247 73.43C91.8047 73.93 91.1347 74.66 90.7147 75.62C90.3147 76.56 90.1147 77.91 90.1147 79.67C90.1147 79.77 90.1347 79.84 90.1747 79.88C90.2347 79.9 90.2847 79.87 90.3247 79.79C91.3847 76.99 93.0047 75.59 95.1847 75.59C97.2847 75.59 98.7847 76.24 99.6847 77.54C100.605 78.82 101.065 80.5 101.065 82.58C101.065 84.44 100.595 86.03 99.6547 87.35C98.7147 88.65 97.2047 89.3 95.1247 89.3ZM95.1247 88.94C96.4047 88.94 97.3647 88.31 98.0047 87.05C98.6447 85.77 98.9647 84.28 98.9647 82.58C98.9647 80.66 98.6547 79.08 98.0347 77.84C97.4347 76.58 96.4847 75.95 95.1847 75.95C93.7247 75.95 92.7047 76.55 92.1247 77.75C91.5647 78.95 91.2847 80.56 91.2847 82.58C91.2847 84.34 91.5747 85.84 92.1547 87.08C92.7547 88.32 93.7447 88.94 95.1247 88.94ZM103.177 96.35C103.517 96.45 103.767 96.5 103.927 96.5C104.287 96.5 104.517 96.37 104.617 96.11C104.717 95.87 104.767 95.5 104.767 95V76.55C104.467 76.65 104.147 76.7 103.807 76.7C103.667 76.7 103.457 76.68 103.177 76.64V75.83H103.447C103.447 75.97 103.517 76.09 103.657 76.19C103.817 76.29 103.997 76.34 104.197 76.34C104.477 76.34 104.727 76.23 104.947 76.01C105.167 75.79 105.437 75.45 105.757 74.99H106.657V76.88H107.197C108.017 75.22 109.357 74.39 111.217 74.39C113.077 74.39 114.417 75.15 115.237 76.67C116.057 78.17 116.467 80.09 116.467 82.43C116.467 83.67 116.267 84.81 115.867 85.85C115.467 86.89 114.867 87.73 114.067 88.37C113.287 88.99 112.327 89.3 111.187 89.3C110.227 89.3 109.397 89.02 108.697 88.46C107.997 87.9 107.437 87.17 107.017 86.27H106.537L106.507 94.1V95C106.507 95.52 106.547 95.9 106.627 96.14C106.727 96.38 106.937 96.5 107.257 96.5C107.417 96.5 107.667 96.45 108.007 96.35V96.8H103.177V96.35ZM106.897 81.95C106.897 82.91 107.027 83.93 107.287 85.01C107.567 86.09 107.997 87.02 108.577 87.8C109.157 88.56 109.877 88.94 110.737 88.94C111.977 88.94 112.887 88.27 113.467 86.93C114.067 85.59 114.367 83.94 114.367 81.98C114.367 79.98 114.077 78.31 113.497 76.97C112.917 75.61 111.977 74.93 110.677 74.93C109.237 74.93 108.247 75.59 107.707 76.91C107.167 78.21 106.897 79.89 106.897 81.95ZM119.068 89.6C118.148 89.6 117.378 89.42 116.758 89.06L116.938 88.73C117.358 88.97 117.708 89.09 117.988 89.09C118.688 89.09 119.208 88.83 119.548 88.31C119.908 87.79 120.278 86.99 120.658 85.91C120.938 85.15 121.178 84.55 121.378 84.11C121.598 83.65 121.898 83.26 122.278 82.94C122.658 82.62 123.138 82.45 123.718 82.43C122.518 82.19 121.508 81.74 120.688 81.08C119.868 80.4 119.458 79.6 119.458 78.68C119.458 77.28 119.998 76.27 121.078 75.65C122.178 75.01 123.568 74.69 125.248 74.69H130.318V75.14C129.978 75.04 129.728 74.99 129.568 74.99C129.208 74.99 128.978 75.12 128.878 75.38C128.778 75.62 128.728 75.99 128.728 76.49V87.2C128.728 87.7 128.778 88.08 128.878 88.34C128.978 88.58 129.208 88.7 129.568 88.7C129.728 88.7 129.978 88.65 130.318 88.55V89H125.218V88.55C125.558 88.65 125.808 88.7 125.968 88.7C126.288 88.7 126.488 88.58 126.568 88.34C126.668 88.1 126.718 87.72 126.718 87.2V82.58C125.658 82.6 124.828 82.8 124.228 83.18C123.628 83.56 123.188 84.01 122.908 84.53C122.648 85.03 122.398 85.7 122.158 86.54C121.938 87.24 121.738 87.79 121.558 88.19C121.378 88.59 121.088 88.92 120.688 89.18C120.288 89.46 119.748 89.6 119.068 89.6ZM126.718 76.49C126.718 76.15 126.698 75.89 126.658 75.71C126.618 75.51 126.488 75.35 126.268 75.23C126.048 75.09 125.698 75.05 125.218 75.11C123.878 75.27 122.908 75.69 122.308 76.37C121.708 77.03 121.408 77.84 121.408 78.8C121.408 79.76 121.818 80.55 122.638 81.17C123.478 81.79 124.548 82.1 125.848 82.1C126.028 82.1 126.318 82.08 126.718 82.04V76.49Z" fill="#7A3A14"/>
<path d="M46.8254 123.77C47.5254 122.91 48.5854 121.79 50.0054 120.41C51.4854 118.95 52.6654 117.69 53.5454 116.63C54.4454 115.55 55.2054 114.29 55.8254 112.85C56.4654 111.39 56.7854 109.78 56.7854 108.02C56.7854 106.46 56.4554 105.21 55.7954 104.27C55.1554 103.31 54.2754 102.83 53.1554 102.83C52.5554 102.83 51.9854 103 51.4454 103.34C50.9054 103.66 50.4754 104.1 50.1554 104.66C49.8354 105.22 49.6754 105.82 49.6754 106.46C49.6754 107.02 49.7454 107.41 49.8854 107.63C50.0454 107.83 50.2754 107.99 50.5754 108.11C50.7954 108.19 50.9554 108.29 51.0554 108.41C51.1554 108.51 51.2054 108.71 51.2054 109.01C51.2054 109.35 51.0854 109.65 50.8454 109.91C50.6054 110.17 50.2854 110.3 49.8854 110.3C49.4054 110.3 48.9754 110.09 48.5954 109.67C48.2154 109.25 48.0254 108.72 48.0254 108.08C48.0254 106.8 48.3154 105.73 48.8954 104.87C49.4754 103.99 50.1854 103.34 51.0254 102.92C51.8654 102.5 52.6654 102.29 53.4254 102.29C54.4254 102.29 55.3254 102.53 56.1254 103.01C56.9454 103.49 57.5854 104.19 58.0454 105.11C58.5254 106.01 58.7654 107.08 58.7654 108.32C58.7654 110.06 58.4154 111.63 57.7154 113.03C57.0354 114.41 56.2154 115.59 55.2554 116.57C54.3154 117.55 53.1254 118.63 51.6854 119.81C50.9454 120.41 50.3454 120.91 49.8854 121.31C49.4454 121.71 49.0754 122.11 48.7754 122.51C48.7154 122.59 48.6854 122.69 48.6854 122.81C48.6854 122.99 48.7854 123.08 48.9854 123.08L53.6954 123.11C54.8754 123.11 55.7754 123.01 56.3954 122.81C57.0354 122.61 57.5154 122.17 57.8354 121.49C58.1754 120.81 58.3454 119.74 58.3454 118.28H58.9154V125H46.8254V123.77ZM68.3691 125.3C66.8291 125.3 65.5291 124.79 64.4691 123.77C63.4091 122.75 62.6191 121.38 62.0991 119.66C61.5791 117.92 61.3191 115.98 61.3191 113.84C61.3191 110.56 61.9191 107.9 63.1191 105.86C64.3191 103.82 66.0691 102.8 68.3691 102.8C69.8491 102.8 71.1191 103.28 72.1791 104.24C73.2591 105.2 74.0791 106.52 74.6391 108.2C75.1991 109.86 75.4791 111.74 75.4791 113.84C75.4791 115.94 75.1991 117.86 74.6391 119.6C74.0791 121.34 73.2591 122.73 72.1791 123.77C71.1191 124.79 69.8491 125.3 68.3691 125.3ZM68.3691 124.7C69.6891 124.7 70.6791 124.22 71.3391 123.26C72.0191 122.3 72.4591 121.06 72.6591 119.54C72.8591 118 72.9591 116.1 72.9591 113.84C72.9591 111.6 72.8591 109.75 72.6591 108.29C72.4591 106.83 72.0191 105.65 71.3391 104.75C70.6791 103.85 69.6891 103.4 68.3691 103.4C66.9891 103.4 65.9691 103.85 65.3091 104.75C64.6491 105.63 64.2391 106.77 64.0791 108.17C63.9191 109.57 63.8391 111.46 63.8391 113.84C63.8391 116.24 63.9191 118.17 64.0791 119.63C64.2391 121.09 64.6491 122.3 65.3091 123.26C65.9691 124.22 66.9891 124.7 68.3691 124.7ZM76.9719 123.77C77.6719 122.91 78.7319 121.79 80.1519 120.41C81.6319 118.95 82.8119 117.69 83.6919 116.63C84.5919 115.55 85.3519 114.29 85.9719 112.85C86.6119 111.39 86.9319 109.78 86.9319 108.02C86.9319 106.46 86.6019 105.21 85.9419 104.27C85.3019 103.31 84.4219 102.83 83.3019 102.83C82.7019 102.83 82.1319 103 81.5919 103.34C81.0519 103.66 80.6219 104.1 80.3019 104.66C79.9819 105.22 79.8219 105.82 79.8219 106.46C79.8219 107.02 79.8919 107.41 80.0319 107.63C80.1919 107.83 80.4219 107.99 80.7219 108.11C80.9419 108.19 81.1019 108.29 81.2019 108.41C81.3019 108.51 81.3519 108.71 81.3519 109.01C81.3519 109.35 81.2319 109.65 80.9919 109.91C80.7519 110.17 80.4319 110.3 80.0319 110.3C79.5519 110.3 79.1219 110.09 78.7419 109.67C78.3619 109.25 78.1719 108.72 78.1719 108.08C78.1719 106.8 78.4619 105.73 79.0419 104.87C79.6219 103.99 80.3319 103.34 81.1719 102.92C82.0119 102.5 82.8119 102.29 83.5719 102.29C84.5719 102.29 85.4719 102.53 86.2719 103.01C87.0919 103.49 87.7319 104.19 88.1919 105.11C88.6719 106.01 88.9119 107.08 88.9119 108.32C88.9119 110.06 88.5619 111.63 87.8619 113.03C87.1819 114.41 86.3619 115.59 85.4019 116.57C84.4619 117.55 83.2719 118.63 81.8319 119.81C81.0919 120.41 80.4919 120.91 80.0319 121.31C79.5919 121.71 79.2219 122.11 78.9219 122.51C78.8619 122.59 78.8319 122.69 78.8319 122.81C78.8319 122.99 78.9319 123.08 79.1319 123.08L83.8419 123.11C85.0219 123.11 85.9219 123.01 86.5419 122.81C87.1819 122.61 87.6619 122.17 87.9819 121.49C88.3219 120.81 88.4919 119.74 88.4919 118.28H89.0619V125H76.9719V123.77ZM97.1056 125.3C95.3656 125.3 93.9656 124.87 92.9056 124.01C91.8456 123.15 91.3156 122 91.3156 120.56C91.3156 119.88 91.4656 119.32 91.7656 118.88C92.0856 118.44 92.4856 118.22 92.9656 118.22C93.3856 118.22 93.7456 118.36 94.0456 118.64C94.3656 118.9 94.5256 119.2 94.5256 119.54C94.5256 119.82 94.4656 120.02 94.3456 120.14C94.2256 120.24 94.0356 120.33 93.7756 120.41C93.5156 120.49 93.3156 120.59 93.1756 120.71C93.0356 120.83 92.9656 121.06 92.9656 121.4C92.9656 121.88 93.0956 122.38 93.3556 122.9C93.6156 123.42 94.0256 123.86 94.5856 124.22C95.1656 124.58 95.9056 124.76 96.8056 124.76C97.8056 124.76 98.6456 124.44 99.3256 123.8C100.026 123.14 100.536 122.3 100.856 121.28C101.176 120.26 101.336 119.21 101.336 118.13C101.336 116.11 100.926 114.53 100.106 113.39C99.2856 112.25 98.0856 111.68 96.5056 111.68C96.1656 111.68 95.7956 111.74 95.3956 111.86C95.0156 111.98 94.4956 112.18 93.8356 112.46L92.7856 112.88C92.7456 112.9 92.6956 112.91 92.6356 112.91C92.4556 112.91 92.3656 112.84 92.3656 112.7L92.6956 102.8H101.666L101.696 107.3H101.096C101.096 106.44 101.036 105.83 100.916 105.47C100.816 105.09 100.626 104.85 100.346 104.75C100.086 104.63 99.6556 104.57 99.0556 104.57H97.7056H94.0756C93.8156 104.57 93.6456 104.62 93.5656 104.72C93.4856 104.8 93.4356 104.92 93.4156 105.08C93.1156 107.78 92.9656 110.15 92.9656 112.19C92.9656 112.25 92.9956 112.29 93.0556 112.31C93.1356 112.33 93.2156 112.32 93.2956 112.28C94.7756 111.56 96.1456 111.2 97.4056 111.2C97.8056 111.2 98.1056 111.22 98.3056 111.26C99.1256 111.4 99.9256 111.78 100.706 112.4C101.506 113.02 102.156 113.83 102.656 114.83C103.176 115.81 103.436 116.88 103.436 118.04C103.436 119.24 103.196 120.4 102.716 121.52C102.256 122.62 101.546 123.53 100.586 124.25C99.6256 124.95 98.4656 125.3 97.1056 125.3Z" fill="#7A3A14"/>
</svg>
