<svg width="125" height="90" viewBox="0 0 125 90" fill="none" xmlns="http://www.w3.org/2000/svg">
<path d="M41.403 45.072C40.027 45.072 39.051 44.528 38.475 43.44C37.899 42.352 37.611 41.088 37.611 39.648C37.611 39.392 37.611 39.136 37.611 38.88C37.643 38.592 37.675 38.32 37.707 38.064C36.299 39.92 34.859 41.344 33.387 42.336C31.915 43.36 30.235 43.872 28.3469 43.872C27.0349 43.872 25.9469 43.376 25.083 42.384C24.219 41.424 23.7869 40.016 23.7869 38.16C23.7869 36.368 24.2029 34.32 25.0349 32.016C25.867 29.68 26.795 27.312 27.819 24.912C28.267 23.888 28.795 22.672 29.403 21.264C30.011 19.856 30.603 18.384 31.179 16.848C31.755 15.28 32.235 13.728 32.619 12.192C33.003 10.656 33.195 9.232 33.195 7.92C33.195 5.68 32.587 4.128 31.371 3.264C30.187 2.4 28.507 1.968 26.3309 1.968C24.2509 1.968 22.091 2.368 19.851 3.168C17.611 3.968 15.451 5.088 13.3709 6.528C11.3229 7.936 9.46695 9.584 7.80295 11.472C6.17095 13.328 4.85895 15.36 3.86695 17.568C2.90695 19.744 2.42695 22 2.42695 24.336C2.42695 26.128 2.74695 27.744 3.38695 29.184C4.02695 30.624 4.95495 31.76 6.17095 32.592C7.41895 33.424 8.89095 33.84 10.5869 33.84C12.1229 33.84 13.5469 33.472 14.859 32.736C16.171 32 17.323 31.04 18.3149 29.856C19.3069 28.672 20.0749 27.408 20.619 26.064C21.195 24.688 21.499 23.392 21.531 22.176C21.5629 21.152 21.3229 20.304 20.811 19.632C20.299 18.96 19.451 18.624 18.267 18.624C17.6589 18.624 17.0989 18.688 16.5869 18.816C16.1069 18.944 15.819 19.008 15.723 19.008C15.435 19.008 15.291 18.896 15.291 18.672C15.291 18.32 15.643 18.016 16.3469 17.76C17.051 17.472 17.931 17.328 18.9869 17.328C20.3949 17.328 21.4349 17.744 22.1069 18.576C22.7789 19.408 23.1149 20.528 23.1149 21.936C23.1149 23.28 22.7789 24.72 22.1069 26.256C21.467 27.792 20.539 29.232 19.3229 30.576C18.107 31.92 16.667 33.024 15.0029 33.888C13.3389 34.72 11.4989 35.136 9.48295 35.136C7.69095 35.136 6.10695 34.672 4.73095 33.744C3.35495 32.784 2.28295 31.488 1.51495 29.856C0.778949 28.224 0.410949 26.4 0.410949 24.384C0.410949 21.728 0.954949 19.216 2.04295 16.848C3.13095 14.448 4.58695 12.272 6.41095 10.32C8.23495 8.336 10.2669 6.624 12.5069 5.184C14.7789 3.744 17.0829 2.64 19.419 1.872C21.755 1.072 23.963 0.671997 26.043 0.671997C27.867 0.671997 29.5149 0.991998 30.9869 1.632C32.459 2.24 33.611 3.2 34.443 4.512C35.307 5.792 35.739 7.456 35.739 9.504C35.739 11.648 35.323 13.872 34.491 16.176C33.691 18.448 32.779 20.736 31.755 23.04C30.923 24.864 30.107 26.688 29.307 28.512C28.507 30.304 27.835 32.048 27.291 33.744C26.779 35.44 26.523 37.056 26.523 38.592C26.523 39.904 26.7629 40.912 27.2429 41.616C27.755 42.288 28.411 42.624 29.2109 42.624C30.331 42.624 31.451 42.176 32.5709 41.28C33.7229 40.384 34.843 39.216 35.931 37.776C37.051 36.336 38.107 34.784 39.099 33.12C40.091 31.424 40.987 29.76 41.787 28.128C42.619 26.496 43.323 25.056 43.899 23.808C44.507 22.528 44.955 21.616 45.243 21.072C45.531 20.528 45.899 19.968 46.347 19.392C46.795 18.816 47.323 18.528 47.931 18.528C48.379 18.528 48.6509 18.704 48.747 19.056C48.843 19.408 48.891 19.76 48.891 20.112C48.891 20.912 48.587 21.856 47.979 22.944C47.403 24 46.811 25.008 46.203 25.968C45.819 26.64 45.307 27.536 44.667 28.656C44.059 29.744 43.451 30.96 42.843 32.304C42.235 33.648 41.707 35.008 41.259 36.384C40.843 37.76 40.635 39.024 40.635 40.176C40.635 42.48 41.339 43.632 42.747 43.632C43.643 43.632 44.555 43.264 45.483 42.528C46.411 41.824 47.307 40.912 48.171 39.792C49.067 38.672 49.867 37.488 50.5709 36.24C51.3069 34.992 51.8829 33.824 52.299 32.736C52.683 32.736 52.875 32.88 52.875 33.168C52.331 34.512 51.675 35.888 50.907 37.296C50.171 38.704 49.323 40 48.363 41.184C47.403 42.336 46.347 43.264 45.195 43.968C44.043 44.704 42.779 45.072 41.403 45.072Z" fill="black"/>
<path d="M109.024 79.7345C107.616 79.7345 106.624 79.1745 106.048 78.0545C105.472 76.9665 105.184 75.6865 105.184 74.2145C105.184 72.9025 105.36 71.6065 105.712 70.3265C106.096 69.0465 106.544 68.0705 107.056 67.3985C106.192 68.4225 105.12 69.5905 103.84 70.9025C102.56 72.2145 101.152 73.4785 99.6158 74.6945C98.0798 75.9105 96.4958 76.9185 94.8638 77.7185C93.2318 78.5185 91.6158 78.9185 90.0158 78.9185C87.9038 78.9185 86.3198 78.2465 85.2638 76.9025C84.2398 75.5585 83.7278 73.7185 83.7278 71.3825C83.7278 69.5585 84.0318 67.6065 84.6398 65.5265C85.2798 63.4145 86.2078 61.2705 87.4238 59.0945C87.9998 58.0385 88.6398 56.9985 89.3438 55.9745C90.0798 54.9185 90.8638 53.9265 91.6958 52.9985C90.7038 52.5185 89.7438 51.9905 88.8158 51.4145C87.8878 50.8065 87.1358 50.0865 86.5598 49.2545C85.9838 48.4225 85.6958 47.4305 85.6958 46.2785C85.6958 45.6705 85.8238 45.1265 86.0798 44.6465C86.3678 44.1345 86.6718 43.8785 86.9918 43.8785C87.2798 43.8785 87.4238 44.0545 87.4238 44.4065C87.4238 44.6305 87.3598 44.8705 87.2318 45.1265C87.0718 45.5425 86.9918 45.9265 86.9918 46.2785C86.9918 47.1425 87.2958 47.9585 87.9038 48.7265C88.5118 49.4625 89.2478 50.1025 90.1118 50.6465C90.9758 51.1905 91.7758 51.6225 92.5118 51.9425C94.5598 49.7025 96.7998 47.6385 99.2318 45.7505C101.696 43.8305 104.336 42.2945 107.152 41.1425C109.968 39.9905 112.928 39.4145 116.032 39.4145C118.624 39.4145 120.656 39.9905 122.128 41.1425C123.6 42.2625 124.336 43.7185 124.336 45.5105C124.336 47.1105 123.872 48.4865 122.944 49.6385C122.048 50.7585 120.864 51.7025 119.392 52.4705C117.92 53.2065 116.32 53.7985 114.592 54.2465C112.896 54.6625 111.216 54.9665 109.552 55.1585C107.888 55.3185 106.432 55.3985 105.184 55.3985C103.36 55.3985 101.584 55.2865 99.8558 55.0625C98.1598 54.8385 96.4638 54.4865 94.7678 54.0065C93.9358 55.1905 93.0238 56.5665 92.0318 58.1345C91.0718 59.6705 90.1438 61.3025 89.2478 63.0305C88.3838 64.7265 87.6638 66.4225 87.0878 68.1185C86.5438 69.7825 86.2718 71.3345 86.2718 72.7745C86.2718 74.3425 86.6398 75.5265 87.3758 76.3265C88.1118 77.0945 89.1038 77.4785 90.3518 77.4785C91.8558 77.4785 93.4398 77.0305 95.1038 76.1345C96.7998 75.2065 98.4958 74.0065 100.192 72.5345C101.888 71.0625 103.504 69.4625 105.04 67.7345C106.576 66.0065 107.952 64.2945 109.168 62.5985C110.384 60.9025 111.344 59.3985 112.048 58.0865C112.592 57.0625 113.12 56.3425 113.632 55.9265C114.144 55.4785 114.576 55.2545 114.928 55.2545C115.28 55.2545 115.552 55.3985 115.744 55.6865C115.936 55.9425 116.032 56.2945 116.032 56.7425C116.032 57.6385 115.632 58.5345 114.832 59.4305C113.744 60.6785 112.688 62.1985 111.664 63.9905C110.64 65.7505 109.808 67.6065 109.168 69.5585C108.528 71.4785 108.208 73.2865 108.208 74.9825C108.208 76.1665 108.384 77.0145 108.736 77.5265C109.12 78.0385 109.616 78.2945 110.224 78.2945C111.152 78.2945 112.08 77.9745 113.008 77.3345C113.968 76.7265 114.88 75.8945 115.744 74.8385C116.608 73.7825 117.408 72.6145 118.144 71.3345C118.88 70.0225 119.52 68.7105 120.064 67.3985C120.224 67.3985 120.352 67.4145 120.448 67.4465C120.576 67.4785 120.64 67.6065 120.64 67.8305C120.096 69.2065 119.44 70.5985 118.672 72.0065C117.936 73.4145 117.088 74.7105 116.128 75.8945C115.168 77.0465 114.096 77.9745 112.912 78.6785C111.728 79.3825 110.432 79.7345 109.024 79.7345ZM104.752 54.2465C106.032 54.2465 107.456 54.1825 109.024 54.0545C110.592 53.8945 112.144 53.6225 113.68 53.2385C115.248 52.8545 116.688 52.3105 118 51.6065C119.312 50.9025 120.368 50.0065 121.168 48.9185C121.968 47.8305 122.368 46.5025 122.368 44.9345C122.368 43.5265 121.776 42.4545 120.592 41.7185C119.44 40.9825 117.968 40.6145 116.176 40.6145C113.2 40.6145 110.48 41.2065 108.016 42.3905C105.584 43.5425 103.344 45.0625 101.296 46.9505C99.2798 48.8385 97.3598 50.8705 95.5358 53.0465C96.9438 53.4625 98.3838 53.7665 99.8558 53.9585C101.36 54.1505 102.992 54.2465 104.752 54.2465Z" fill="black"/>
<path d="M59.8929 58.272C59.1462 58.272 58.5062 58.0267 57.9729 57.536C57.4182 57.0667 57.1409 56.544 57.1409 55.968C57.1409 55.6907 57.2262 55.4133 57.3969 55.136C57.4396 55.0293 57.5142 54.9867 57.6209 55.008C57.7062 55.0293 57.7169 55.0933 57.6529 55.2C57.5249 55.4133 57.4609 55.616 57.4609 55.808C57.4609 56.1707 57.6529 56.4587 58.0369 56.672C58.4209 56.9067 58.9116 56.9813 59.5089 56.896C60.4902 56.768 61.3222 56.4053 62.0049 55.808C62.7089 55.2107 63.3062 54.4533 63.7969 53.536C64.3089 52.64 64.7356 51.7013 65.0769 50.72C65.0342 50.7413 64.9702 50.752 64.8849 50.752C64.7996 50.7733 64.7142 50.784 64.6289 50.784C64.5436 50.784 64.4476 50.784 64.3409 50.784C63.3596 50.784 62.5596 50.464 61.9409 49.824C61.3222 49.184 61.0129 48.3947 61.0129 47.456C61.0129 46.6667 61.2689 45.824 61.7809 44.928C62.2929 44.032 63.1356 43.1893 64.3089 42.4C64.7996 42.0587 65.3222 41.728 65.8769 41.408C66.4529 41.0667 67.0289 40.7253 67.6049 40.384C67.8609 39.3387 68.2342 38.4107 68.7249 37.6C69.2156 36.768 69.9196 36.2987 70.8369 36.192C71.2209 36.1493 71.5622 36.2133 71.8609 36.384C72.1809 36.5547 72.3409 36.8107 72.3409 37.152C72.3409 37.344 72.2342 37.5573 72.0209 37.792C71.8289 38.0267 71.5729 38.2507 71.2529 38.464C70.7836 38.8053 70.3356 39.1147 69.9089 39.392C69.5036 39.6693 69.0876 39.9573 68.6609 40.256C68.4689 40.7467 68.2662 41.3013 68.0529 41.92C67.8609 42.5387 67.6476 43.2213 67.4129 43.968H70.9009C71.5196 43.968 71.9462 43.9253 72.1809 43.84C72.4156 43.7547 72.5756 43.6693 72.6609 43.584C72.7036 43.5413 72.7356 43.5307 72.7569 43.552C72.7996 43.552 72.8209 43.5733 72.8209 43.616C72.7782 44.064 72.5649 44.3733 72.1809 44.544C71.8182 44.6933 71.4449 44.7893 71.0609 44.832C70.8689 45.5787 70.4956 46.3467 69.9409 47.136C69.3862 47.904 68.7356 48.5973 67.9889 49.216C67.2636 49.8347 66.5062 50.2827 65.7169 50.56C65.4396 51.5413 65.1089 52.512 64.7249 53.472C64.3409 54.432 63.8929 55.2853 63.3809 56.032C62.8902 56.7787 62.3142 57.3547 61.6529 57.76C61.0556 58.1013 60.4689 58.272 59.8929 58.272ZM68.9169 39.616C69.2796 39.3813 69.6316 39.1573 69.9729 38.944C70.3356 38.7093 70.6769 38.4747 70.9969 38.24C71.2956 38.0053 71.5089 37.7813 71.6369 37.568C71.7649 37.3547 71.8289 37.1627 71.8289 36.992C71.8289 36.672 71.6689 36.512 71.3489 36.512C71.1782 36.512 70.9756 36.5867 70.7409 36.736C70.5062 36.8853 70.2716 37.1413 70.0369 37.504C69.8662 37.76 69.6849 38.0693 69.4929 38.432C69.3222 38.7733 69.1302 39.168 68.9169 39.616ZM65.3009 49.984C65.5782 49.1733 65.8129 48.3733 66.0049 47.584C66.2182 46.7733 66.4209 46.0693 66.6129 45.472L66.8049 44.672C66.2289 44.7147 65.7062 44.8427 65.2369 45.056C64.7889 45.248 64.4582 45.6 64.2449 46.112C64.1382 46.3893 64.0849 46.6347 64.0849 46.848C64.0849 47.2107 64.2022 47.5093 64.4369 47.744C64.4796 47.7653 64.4582 47.7973 64.3729 47.84C64.3089 47.8613 64.2556 47.8507 64.2129 47.808C63.8929 47.5307 63.7329 47.136 63.7329 46.624C63.7329 45.9413 64.0209 45.3333 64.5969 44.8C65.1729 44.2453 65.8982 43.968 66.7729 43.968H66.9329L67.4449 41.088C66.9329 41.4507 66.4316 41.8347 65.9409 42.24C65.4502 42.6453 64.9702 43.072 64.5009 43.52C63.7969 44.2027 63.2849 44.8853 62.9649 45.568C62.6662 46.2293 62.5169 46.8373 62.5169 47.392C62.5169 48.1387 62.7516 48.7573 63.2209 49.248C63.7116 49.7387 64.3196 49.984 65.0449 49.984H65.3009ZM65.9089 49.888C66.6556 49.7173 67.3276 49.3653 67.9249 48.832C68.5222 48.2987 69.0236 47.68 69.4289 46.976C69.8556 46.2507 70.1436 45.536 70.2929 44.832C69.8662 44.8107 69.3862 44.7787 68.8529 44.736C68.3196 44.672 67.7756 44.64 67.2209 44.64L67.1569 44.928C66.9862 45.5467 66.7942 46.2933 66.5809 47.168C66.3889 48.0427 66.1649 48.9493 65.9089 49.888Z" fill="black"/>
</svg>
